HIERARCHY
ROOT root
{
	OFFSET 0.000000 0.000000 0.000000
	CHANNELS 6 Xposition Yposition Zposition Zrotation Yrotation Xrotation
	JOINT lhip
	{
		OFFSET 0.058581 -0.082280 -0.017664
		CHANNELS 3 Zrotation Yrotation Xrotation
		JOINT lknee
		{
			OFFSET 0.043451 -0.386469 0.008037
			CHANNELS 3 Zrotation Yrotation Xrotation
			JOINT lankle
			{
				OFFSET -0.014790 -0.426874 -0.037428
				CHANNELS 3 Zrotation Yrotation Xrotation
				JOINT ltoe
				{
					OFFSET 0.041054 -0.060286 0.122042
					CHANNELS 3 Zrotation Yrotation Xrotation
					End Site
					{
						OFFSET 0.000000 0.000000 0.000000
					}
				}
			}
		}
	}
	JOINT rhip
	{
		OFFSET -0.060310 -0.090513 -0.013543
		CHANNELS 3 Zrotation Yrotation Xrotation
		JOINT rknee
		{
			OFFSET -0.043257 -0.383688 -0.004843
			CHANNELS 3 Zrotation Yrotation Xrotation
			JOINT rankle
			{
				OFFSET 0.019056 -0.420046 -0.034562
				CHANNELS 3 Zrotation Yrotation Xrotation
				JOINT rtoe
				{
					OFFSET -0.034840 -0.062106 0.130323
					CHANNELS 3 Zrotation Yrotation Xrotation
					End Site
					{
						OFFSET 0.000000 0.000000 0.000000
					}
				}
			}
		}
	}
	JOINT lowerback
	{
		OFFSET 0.004439 0.124404 -0.038385
		CHANNELS 3 Zrotation Yrotation Xrotation
		JOINT upperback
		{
			OFFSET 0.004488 0.137956 0.026820
			CHANNELS 3 Zrotation Yrotation Xrotation
			JOINT chest
			{
				OFFSET -0.002265 0.056032 0.002855
				CHANNELS 3 Zrotation Yrotation Xrotation
				JOINT lowerneck
				{
					OFFSET -0.013390 0.211636 -0.033468
					CHANNELS 3 Zrotation Yrotation Xrotation
					JOINT upperneck
					{
						OFFSET 0.010113 0.088937 0.050410
						CHANNELS 3 Zrotation Yrotation Xrotation
						End Site
						{
							OFFSET 0.000000 0.000000 0.000000
						}
					}
				}
				JOINT lclavicle
				{
					OFFSET 0.071702 0.114000 -0.018898
					CHANNELS 3 Zrotation Yrotation Xrotation
					JOINT lshoulder
					{
						OFFSET 0.122921 0.045205 -0.019046
						CHANNELS 3 Zrotation Yrotation Xrotation
						JOINT lelbow
						{
							OFFSET 0.255332 -0.015649 -0.022946
							CHANNELS 3 Zrotation Yrotation Xrotation
							JOINT lwrist
							{
								OFFSET 0.265709 0.012698 -0.007375
								CHANNELS 3 Zrotation Yrotation Xrotation
								End Site
								{
									OFFSET 0.000000 0.000000 0.000000
								}
							}
						}
					}
				}
				JOINT rclavicle
				{
					OFFSET -0.082954 0.112472 -0.023707
					CHANNELS 3 Zrotation Yrotation Xrotation
					JOINT rshoulder
					{
						OFFSET -0.113228 0.046853 -0.008472
						CHANNELS 3 Zrotation Yrotation Xrotation
						JOINT relbow
						{
							OFFSET -0.260127 -0.014369 -0.031269
							CHANNELS 3 Zrotation Yrotation Xrotation
							JOINT rwrist
							{
								OFFSET -0.269108 0.006794 -0.006027
								CHANNELS 3 Zrotation Yrotation Xrotation
								End Site
								{
									OFFSET 0.000000 0.000000 0.000000
								}
							}
						}
					}
				}
			}
		}
	}
}
MOTION
Frames: 16
Frame Time: 0.033333
-0.802139 0.280609 0.991733 94.049874 -2.556969 84.466166 4.333531 0.377010 -6.765033 -7.059696 -4.155505 28.783650 0.141089 8.868382 -12.544100 0.000000 -0.000000 0.000000 -1.325039 -4.077795 -1.563043 -1.341743 -2.198655 18.340462 -0.673255 -12.787416 -15.011274 0.000000 -0.000000 0.000000 1.880153 0.390049 13.222148 1.997880 -1.289897 -3.112583 -0.895371 -1.900662 2.717725 2.679413 1.055525 9.941380 -4.958849 -1.240515 20.125163 -28.957716 8.942891 0.064026 -53.657330 -8.062962 8.562026 3.965819 -31.129083 12.653540 -4.386076 -0.023066 -4.269312 30.848318 -3.530912 -2.018524 52.218834 8.063925 14.049747 -9.605780 21.807943 -5.183495 4.851124 -0.071956 -3.733195 
-0.798322 0.282176 0.991869 93.453898 -2.794264 84.281276 4.529484 -0.287655 -7.957364 -7.868326 -4.301344 30.354237 1.548814 8.238677 -12.107928 0.000000 -0.000000 0.000000 -1.824036 -3.934939 -1.069877 -1.016020 -1.789602 18.300143 -0.389956 -12.764753 -15.346381 0.000000 -0.000000 0.000000 1.547457 0.933747 13.907688 2.046366 -1.044303 -3.327589 -0.918748 -1.778528 2.391727 2.893465 0.967926 9.973482 -4.836395 -1.425681 20.446778 -29.166949 9.105168 0.127867 -53.379949 -7.859693 8.824066 3.836958 -31.578641 12.921785 -4.864145 -0.366716 -4.024124 30.527941 -3.469662 -1.867699 52.251321 7.838585 14.132384 -9.666824 21.310840 -4.846976 5.091481 -0.061553 -3.932274 
-0.793403 0.284539 0.991863 92.786361 -2.846515 84.209850 4.885277 -0.092515 -9.045573 -7.738361 -4.153311 30.069667 1.232686 8.793240 -14.300612 0.000000 -0.000000 0.000000 -2.069880 -4.030531 -0.635889 -0.882073 -1.183787 18.201353 -0.309686 -12.819252 -15.581105 0.000000 -0.000000 0.000000 1.492131 1.292099 13.766869 1.967171 -1.002695 -3.130649 -1.069915 -1.478389 2.575577 2.993499 0.873991 10.192738 -4.703281 -1.438427 20.531878 -29.183092 9.222464 0.081517 -53.347837 -7.646331 8.754376 3.878811 -31.891684 13.068062 -4.437400 -0.016396 -4.165034 30.654049 -3.252194 -1.623974 51.802758 8.053075 14.047676 -9.591668 21.247294 -4.778860 4.930175 -0.210783 -3.488286 
-0.786024 0.288625 0.992197 91.967297 -2.906745 84.260470 5.129729 -0.664708 -9.196804 -6.704455 -4.368328 26.291018 1.703915 9.251761 -13.528064 0.000000 -0.000000 0.000000 -2.456593 -4.105501 0.206304 -0.657827 -0.320347 17.311341 -0.327639 -12.900129 -15.573474 0.000000 -0.000000 0.000000 1.559893 1.692348 13.833939 1.654346 -0.817616 -3.235437 -1.237702 -1.298956 2.520640 3.051924 0.873018 10.437598 -4.667336 -1.693980 20.398501 -29.226314 9.591234 -0.013235 -53.209782 -7.467986 8.839824 3.962147 -31.793027 13.022281 -4.593550 0.097939 -4.330709 30.559525 -3.434938 -1.698172 51.710610 8.218416 13.926647 -9.446007 20.635926 -4.977856 4.920640 -0.956017 -3.429717 
-0.780526 0.292016 0.992372 91.951653 -2.926642 84.314090 5.048227 -0.931900 -9.174849 -5.984095 -5.150364 23.160956 1.251862 8.960532 -12.579488 0.000000 -0.000000 0.000000 -2.704683 -3.857092 0.932004 -0.719811 -0.539540 16.484394 0.252011 -12.583001 -15.373405 0.000000 -0.000000 0.000000 1.705413 1.649075 14.012264 1.432620 -0.867341 -3.464004 -1.350188 -1.281826 2.353839 2.844531 0.941975 10.536337 -4.604482 -1.655137 20.221469 -29.310248 9.719168 0.074387 -53.074165 -7.346970 8.815730 4.203454 -31.600059 12.458084 -4.813053 -0.391678 -4.001460 30.265192 -3.484293 -1.557170 51.873822 7.876594 13.995187 -9.614105 20.654185 -5.191670 5.025756 -0.229983 -3.697689 
-0.773381 0.297245 0.991930 91.373333 -2.991278 84.588265 4.880031 -1.280109 -9.471299 -5.262703 -6.193376 19.358682 0.791226 8.769738 -12.180571 0.000000 -0.000000 0.000000 -3.019255 -3.425952 0.924126 -0.716805 -0.315009 16.869139 0.428514 -12.975962 -15.959197 0.000000 -0.000000 0.000000 1.601084 1.740165 13.543988 1.254225 -0.668459 -3.248981 -1.461510 -1.280173 2.435351 2.969244 1.379273 10.235901 -4.873447 -1.732920 20.356618 -29.250362 9.764567 -0.071282 -53.150820 -7.380954 9.061649 4.531719 -30.941330 12.058108 -4.407947 -0.206248 -4.133037 30.269525 -3.512104 -1.560607 51.638838 8.109199 14.200035 -9.556729 20.519328 -5.401736 4.997801 -0.398039 -3.621421 
-0.766387 0.303768 0.991870 90.770935 -2.971458 84.947723 4.646322 -1.440935 -9.483760 -4.739178 -7.350916 15.016906 0.566788 8.065001 -11.581497 0.000000 -0.000000 0.000000 -3.615157 -4.150630 1.268002 -0.522797 0.529421 16.104891 0.667852 -12.325164 -15.623892 0.000000 -0.000000 0.000000 1.722494 2.106190 13.141950 1.098835 -0.746683 -2.908357 -1.520533 -1.184047 2.316341 2.758098 1.427941 10.154052 -4.790733 -2.079100 19.876237 -29.432233 9.547097 -0.141821 -53.116763 -7.179096 9.113923 4.763220 -30.417079 11.420498 -4.206061 0.031396 -4.057260 30.183924 -3.359122 -1.365427 51.271337 8.177228 13.972648 -9.602947 20.769601 -5.666523 4.903286 -0.314012 -3.458612 
-0.756486 0.311886 0.990689 90.842014 -3.020994 85.221616 3.985552 -1.368052 -9.891931 -4.534636 -8.337152 12.888564 1.031743 7.613252 -10.212631 0.000000 -0.000000 0.000000 -4.284924 -4.029689 1.760820 -0.532056 0.301178 15.941799 1.108581 -12.090866 -16.115926 0.000000 -0.000000 0.000000 1.739768 1.998695 12.741414 0.951636 -0.992793 -3.088897 -1.657234 -1.219753 2.257732 2.646784 1.598881 10.468883 -4.817086 -1.807853 19.696926 -29.263607 9.593411 0.043016 -53.173204 -6.839934 9.136353 4.718154 -30.050437 11.475701 -4.046736 -0.074599 -4.171177 30.052262 -3.392063 -0.895394 51.009456 8.010004 13.909320 -9.767099 21.670979 -5.638597 4.915910 0.444060 -3.103468 
-0.748178 0.320189 0.989146 90.027634 -2.966165 85.453530 3.606338 -1.017860 -10.149012 -4.603393 -8.358346 12.348837 0.823337 6.651852 -6.571479 0.000000 -0.000000 0.000000 -4.735209 -4.000793 1.364585 -0.761437 0.520599 17.190495 0.874270 -12.266520 -16.952778 0.000000 -0.000000 0.000000 1.498561 2.031721 12.443868 0.979904 -0.685692 -2.754810 -1.709248 -1.003399 2.152198 2.639671 1.726861 10.359101 -4.646280 -1.693590 19.423143 -29.351934 9.532932 -0.054168 -52.939173 -6.947894 9.298166 4.418282 -29.755171 11.505886 -4.191425 0.211916 -4.053454 29.962242 -3.145661 -0.746379 50.818089 8.159695 13.828584 -9.896935 21.088196 -6.081667 5.279064 -0.291789 -3.240029 
-0.733412 0.331589 0.987133 89.297576 -2.601685 84.868969 3.376587 -0.810986 -8.831596 -4.440496 -7.427462 13.262280 1.676152 6.125115 -6.749450 0.000000 -0.000000 0.000000 -5.404173 -3.955463 3.543279 -0.618396 0.765567 15.810221 1.253443 -11.885191 -16.606425 0.000000 -0.000000 0.000000 1.729959 2.226635 12.706633 0.903623 -0.693534 -2.470419 -1.693876 -0.816707 1.837114 2.542781 1.250295 11.237235 -4.579916 -1.508456 19.118771 -29.248130 9.307997 0.350584 -53.081558 -6.866618 8.953560 4.294812 -29.691804 11.815703 -4.430835 0.228725 -3.980333 29.675361 -3.013279 -0.552341 50.613467 7.792118 13.391946 -10.230434 21.434622 -6.654787 5.268727 -0.129609 -3.506850 
-0.722850 0.341225 0.985250 88.651845 -2.770281 84.745677 2.907906 -0.944244 -8.135760 -5.046964 -7.967132 13.540815 2.961027 7.122702 -7.357217 0.000000 -0.000000 0.000000 -5.897648 -3.358455 3.001117 -1.239578 0.443230 18.004379 2.329793 -11.928190 -16.977665 0.000000 -0.000000 0.000000 1.129614 2.367272 12.510330 0.937208 -0.539732 -2.222594 -1.674617 -0.709108 2.068464 2.899630 1.320044 11.431179 -4.779919 -1.435212 19.292634 -29.131934 9.289610 0.343410 -53.187200 -7.113409 9.020016 4.443170 -29.720011 11.687954 -4.520872 0.434098 -3.907774 30.086391 -2.829638 -0.630186 50.295883 7.898334 13.316751 -10.845863 21.418031 -7.856796 5.541101 -0.692634 -3.656762 
-0.712389 0.350895 0.984701 87.981040 -3.015794 84.652939 2.222489 -1.186273 -7.656320 -5.415078 -7.995301 14.378508 2.628268 6.944241 -8.736506 0.000000 -0.000000 0.000000 -6.372634 -3.451922 1.420507 -2.195108 0.153463 22.134397 3.331525 -12.037611 -16.955884 0.000000 -0.000000 0.000000 0.770547 2.472823 12.413436 0.837530 -0.503285 -2.229810 -1.861170 -0.762980 2.389112 3.046379 1.849877 11.285193 -5.034086 -1.347878 19.622337 -29.107715 9.249243 0.307582 -53.070722 -7.296158 8.908880 4.788808 -29.950841 11.067794 -4.821939 -0.080808 -3.672458 30.421710 -3.020221 -0.699301 50.481170 8.229283 13.097214 -11.629732 21.526660 -9.151108 5.964144 0.003356 -4.231008 
-0.703621 0.359779 0.987009 87.115631 -2.945865 84.293343 1.738308 -0.668186 -5.946046 -5.186460 -7.975746 12.965883 3.440063 7.216339 -8.508390 0.000000 -0.000000 0.000000 -6.411051 -2.956006 -1.339032 -3.116861 -0.591369 28.170797 4.311821 -12.430357 -14.686206 0.000000 -0.000000 0.000000 0.424049 1.841705 12.888452 0.916207 0.178369 -2.184425 -1.904140 -0.592460 2.439714 2.904084 1.899341 11.610402 -5.364991 -1.008874 19.608509 -29.233546 9.156085 0.382937 -53.015074 -7.616582 8.693110 5.255543 -29.980265 10.309735 -5.016106 0.028354 -3.067805 30.754074 -2.855502 -0.740650 50.547554 8.564009 13.199305 -12.310514 21.781760 -10.615072 5.695976 0.132070 -3.784294 
-0.694838 0.368700 0.989488 86.967139 -2.793867 84.024579 1.191306 -0.365420 -4.636680 -4.840838 -8.112564 11.820999 3.959061 7.098138 -7.945630 0.000000 -0.000000 0.000000 -6.635925 -2.703553 -4.528739 -3.605929 -1.335720 35.099162 4.793768 -12.632501 -11.119890 0.000000 -0.000000 0.000000 0.210058 1.063422 13.381090 0.988909 0.437486 -2.424833 -1.897462 -0.673285 2.257914 2.618137 1.948566 12.117649 -5.585385 -0.167374 19.751354 -28.909530 9.259962 0.518161 -53.322585 -7.563297 8.528331 5.539292 -30.033433 10.272803 -5.093230 0.258153 -3.284183 30.799372 -2.990913 -0.370787 50.812249 8.917611 13.398455 -12.582760 22.599606 -11.254742 5.493560 0.587555 -3.338029 
-0.686852 0.375266 0.991722 87.212503 -2.524972 83.613247 1.098552 -0.046584 -3.181385 -5.068940 -8.845597 11.077032 4.920924 7.516245 -8.551356 0.000000 -0.000000 0.000000 -6.789197 -2.640067 -7.326463 -3.875904 -2.833951 40.370963 3.962778 -14.175541 -7.831449 0.000000 -0.000000 0.000000 -0.153844 0.177053 13.698733 1.187659 0.584582 -2.224914 -1.807695 -0.930352 2.414928 2.534641 2.119291 11.973505 -5.751710 0.273750 19.933900 -28.791098 8.848074 0.971860 -52.955726 -8.011348 8.330598 5.590899 -30.431760 9.832259 -5.121815 0.208336 -3.441924 31.035152 -2.600741 -0.300515 50.948240 8.942294 13.885399 -12.816783 23.161172 -11.272627 5.654228 0.810047 -3.153392 
-0.679108 0.380025 0.993932 88.043692 -2.081314 83.196394 1.261511 0.377067 -1.861540 -5.128491 -9.634862 10.124402 4.948154 7.202701 -8.402461 0.000000 -0.000000 0.000000 -6.599645 -3.286209 -8.933280 -3.843531 -4.395209 42.730863 3.035986 -14.491519 -8.895924 0.000000 -0.000000 0.000000 -0.240945 -0.548524 14.557832 1.329875 0.306257 -2.638905 -1.630263 -1.365332 2.272698 2.605392 2.477083 12.037699 -5.862160 0.362268 20.132562 -28.420059 8.692813 0.981513 -52.564068 -8.007101 8.100280 4.919793 -30.737945 10.623147 -5.244942 0.254531 -3.402865 31.410498 -2.744611 -0.580612 50.887899 8.705728 13.973501 -12.512178 24.289295 -10.200868 6.343182 1.027616 -2.389459 
